<?xml version="1.0" encoding="UTF-8"?>
<svg id="Layer_2" xmlns="http://www.w3.org/2000/svg" viewBox="0 0 37.31 37.31">
    <defs>
        <style>
            .cls-1 {
                fill: #406325;
                stroke-width: 0px;
            }
        </style>
    </defs>
    <g id="Layer_2-2">
        <path class="cls-1"
            d="M18.51,6.21c-.61,0-1.1-.49-1.1-1.1V1.1c0-.61.49-1.1,1.1-1.1s1.1.49,1.1,1.1v4.01c0,.61-.49,1.1-1.1,1.1Z" />
        <path class="cls-1"
            d="M9.75,9.95c-.43.43-1.12.43-1.55,0l-2.84-2.84c-.43-.43-.43-1.12,0-1.55s1.12-.43,1.55,0l2.84,2.84c.43.43.43,1.12,0,1.55Z" />
        <path class="cls-1"
            d="M6.21,18.8c0,.61-.49,1.1-1.1,1.1H1.1c-.61,0-1.1-.49-1.1-1.1,0-.61.49-1.1,1.1-1.1h4.01c.61,0,1.1.49,1.1,1.1Z" />
        <path class="cls-1"
            d="M9.95,27.56c.43.43.43,1.12,0,1.55l-2.84,2.84c-.43.43-1.12.43-1.55,0s-.43-1.12,0-1.55l2.84-2.84c.43-.43,1.12-.43,1.55,0Z" />
        <path class="cls-1"
            d="M18.8,31.1c.61,0,1.1.49,1.1,1.1v4.01c0,.61-.49,1.1-1.1,1.1s-1.1-.49-1.1-1.1v-4.01c0-.61.49-1.1,1.1-1.1Z" />
        <path class="cls-1"
            d="M27.56,27.35c.43-.43,1.12-.43,1.55,0l2.84,2.84c.43.43.43,1.12,0,1.55s-1.12.43-1.55,0l-2.84-2.84c-.43-.43-.43-1.12,0-1.55Z" />
        <path class="cls-1"
            d="M31.1,18.51c0-.61.49-1.1,1.1-1.1h4.01c.61,0,1.1.49,1.1,1.1s-.49,1.1-1.1,1.1h-4.01c-.61,0-1.1-.49-1.1-1.1Z" />
        <circle class="cls-1" cx="18.65" cy="18.6" r="9.07" />
        <path class="cls-1"
            d="M27.35,9.75c-.43-.43-.43-1.12,0-1.55l2.84-2.84c.43-.43,1.12-.43,1.55,0s.43,1.12,0,1.55l-2.84,2.84c-.43.43-1.12.43-1.55,0Z" />
    </g>
</svg>