<?xml version="1.0" encoding="UTF-8"?>
<svg id="Layer_2" xmlns="http://www.w3.org/2000/svg" viewBox="0 0 15.85 36.92">
    <defs>
        <style>
            .cls-1 {
                fill: #406325;
                stroke-width: 0px;
            }
        </style>
    </defs>
    <g id="Layer_2-2">
        <path class="cls-1"
            d="M7.98,36.92C3.6,36.94.02,33.39,0,29.01c0-2.38,1.06-4.64,2.88-6.13l-.07-17.81C2.79,2.28,5.04.01,7.82,0c2.76-.01,5.01,2.24,5.02,5.02l.07,17.81c1.83,1.48,2.92,3.73,2.93,6.11.02,4.38-3.51,7.96-7.87,7.98ZM7.83,1.78c-1.8,0-3.25,1.47-3.24,3.27l.08,18.25c0,.29-.13.56-.37.72-1.61,1.17-2.52,2.98-2.51,4.97.01,3.4,2.79,6.15,6.19,6.13,3.37-.01,6.11-2.79,6.09-6.19,0-1.99-.94-3.79-2.55-4.95-.23-.17-.37-.43-.37-.72l-.08-18.25c0-1.76-1.49-3.25-3.23-3.24Z" />
        <path class="cls-1"
            d="M7.96,33.22c-2.35,0-4.26-1.89-4.27-4.23s1.89-4.22,4.24-4.23,4.22,1.87,4.23,4.19c0,2.34-1.87,4.26-4.19,4.27Z" />
        <path class="cls-1"
            d="M7.93,26.55c-.49,0-.89-.4-.9-.89l-.09-21.03c0-.49.4-.89.89-.9s.89.39.9.89l.09,21.03c0,.49-.39.89-.89.9Z" />
    </g>
</svg>