<?xml version="1.0" encoding="UTF-8"?><svg id="Layer_2" xmlns="http://www.w3.org/2000/svg" viewBox="0 0 61.71 61.71"><defs><style>.cls-1{fill:#fbb040;stroke-width:0px;}</style></defs><g id="Layer_2-2"><path class="cls-1" d="M30.86,61.71C13.84,61.71,0,47.87,0,30.86S13.84,0,30.86,0s30.86,13.84,30.86,30.86-13.84,30.86-30.86,30.86ZM30.86,4.8c-14.37,0-26.06,11.69-26.06,26.06s11.69,26.06,26.06,26.06,26.06-11.69,26.06-26.06S45.23,4.8,30.86,4.8Z"/><path class="cls-1" d="M27.52,36.49v-1.72c0-1.05.15-1.98.44-2.79.29-.81.77-1.58,1.41-2.32.65-.73,1.51-1.49,2.57-2.26.96-.68,1.73-1.29,2.31-1.83.58-.54,1-1.08,1.28-1.61.27-.53.41-1.14.41-1.82,0-1-.37-1.77-1.11-2.3-.74-.53-1.78-.79-3.11-.79s-2.65.21-3.95.63c-1.31.42-2.63.97-3.98,1.65l-2.53-5.08c1.55-.87,3.22-1.57,5.03-2.1s3.79-.8,5.94-.8c3.31,0,5.87.79,7.69,2.38,1.82,1.58,2.72,3.6,2.72,6.04,0,1.3-.21,2.42-.61,3.37-.41.95-1.03,1.83-1.86,2.64-.83.81-1.86,1.67-3.1,2.56-.93.68-1.64,1.25-2.13,1.72-.5.46-.83.92-1.01,1.38-.18.46-.27,1.01-.27,1.66v1.39h-6.14ZM26.78,44.42c0-1.45.4-2.47,1.19-3.06.8-.59,1.76-.88,2.89-.88s2.04.29,2.84.88c.8.59,1.19,1.61,1.19,3.06s-.4,2.4-1.19,3.01c-.8.62-1.74.93-2.84.93s-2.09-.31-2.89-.93c-.8-.62-1.19-1.62-1.19-3.01Z"/></g></svg>