<?xml version="1.0" encoding="UTF-8"?><svg id="Layer_2" xmlns="http://www.w3.org/2000/svg" viewBox="0 0 61.71 61.71"><defs><style>.cls-1{opacity:.5;}.cls-2{fill:#fff;stroke-width:0px;}</style></defs><g id="Layer_2-2"><g class="cls-1"><path class="cls-2" d="M44.94,20.6c-.04-2.76-.07-5.43-.09-6.64.01-.28.05-.76.01-1,0-.07-.21-.75-.36-.92-.44-.66-1.13-.64-2.15-.46-.53.09-4.67.87-9.01,1.67-4.34.8-8.49,1.56-9.01,1.67-1.26.25-1.96.53-1.88,1.86,0,.18-.02.36-.01.57,0,.53.07,4.73.14,9.11.06,4.39.12,8.58.13,9.11.01.43.05.71.04,1.04-1.3-.28-2.75-.14-4.29.39-3.56,1.2-5.83,4.25-5.06,6.8.77,2.56,4.28,3.65,7.84,2.45,3.56-1.2,5.15-4.22,5.06-6.81,0-.02.06-3.59.06-3.92,0-.53-.07-4.73-.14-9.11,0-.41-.01-.82-.02-1.22,1.23-.23,4.51-.84,7.92-1.47,2.9-.53,5.7-1.05,7.23-1.33.04,2.82.07,5.22.08,5.57,0,.32.03.58.03.82-.94-.11-1.9.03-2.95.45-2.99,1.2-4.9,4.25-4.25,6.8.64,2.56,3.6,3.66,6.58,2.45,2.99-1.2,4.32-4.22,4.25-6.81,0-.02-.1-8.7-.13-11.06ZM33.45,20.13c-2.95.54-5.8,1.07-7.31,1.35-.02-1.32-.03-2.44-.05-3.2,1.61-.3,4.71-.87,7.91-1.47,2.8-.52,5.51-1.01,7.23-1.33.01.9.03,2,.05,3.2-1.29.24-4.5.84-7.84,1.46Z"/><path class="cls-2" d="M30.86,61.71C13.84,61.71,0,47.87,0,30.86S13.84,0,30.86,0s30.86,13.84,30.86,30.86-13.84,30.86-30.86,30.86ZM30.86,4.8c-14.37,0-26.06,11.69-26.06,26.06s11.69,26.06,26.06,26.06,26.06-11.69,26.06-26.06S45.23,4.8,30.86,4.8Z"/><rect class="cls-2" x=".42" y="26.76" width="58.57" height="5.62" transform="translate(-12.1 26.53) rotate(-40.71)"/></g></g></svg>