<?xml version="1.0" encoding="UTF-8"?><svg id="Layer_2" xmlns="http://www.w3.org/2000/svg" viewBox="0 0 61.71 61.71"><defs><style>.cls-1{opacity:.5;}.cls-2{fill:#fff;stroke-width:0px;}</style></defs><g id="Layer_2-2"><g class="cls-1"><path class="cls-2" d="M31.02,16.41c5.44,0,10.1,3.31,12.11,8.01-.94-.01-1.68-.02-2.14-.03-.32,0-.5.2-.51.58,0,.66,2.53,3.56,3.82,4.99.24.26.54.37.84.35,0,0,0,0,0,0,0,0,0,0,0,0,.29.03.6-.07.84-.33,1.33-1.4,3.93-4.24,3.94-4.9,0-.38-.17-.59-.5-.59-.4,0-1.03-.01-1.81-.02-2.19-7.1-8.79-12.27-16.61-12.27s-14.82,5.47-16.8,12.9h4.41c1.84-5.07,6.68-8.69,12.39-8.69Z"/><path class="cls-2" d="M31.02,43.6c-5.45,0-10.11-3.32-12.12-8.04.83-.02,1.5-.03,1.91-.04.32,0,.5-.22.49-.59-.01-.66-2.63-3.48-3.97-4.87-.25-.26-.55-.35-.85-.32,0,0,0,0,0,0h0c-.3-.02-.6.09-.84.35-1.28,1.44-3.8,4.35-3.79,5.01,0,.38.19.58.51.58.45,0,1.17-.02,2.08-.03,2.22,7.05,8.79,12.17,16.57,12.17s14.82-5.47,16.8-12.9h-4.41c-1.84,5.07-6.68,8.7-12.39,8.7Z"/><path class="cls-2" d="M30.86,61.71C13.84,61.71,0,47.87,0,30.86S13.84,0,30.86,0s30.86,13.84,30.86,30.86-13.84,30.86-30.86,30.86ZM30.86,4.8c-14.37,0-26.06,11.69-26.06,26.06s11.69,26.06,26.06,26.06,26.06-11.69,26.06-26.06S45.23,4.8,30.86,4.8Z"/></g></g></svg>