<?xml version="1.0" encoding="UTF-8"?><svg id="Layer_2" xmlns="http://www.w3.org/2000/svg" viewBox="0 0 61.71 61.71"><defs><style>.cls-1{fill:#406325;stroke-width:0px;}</style></defs><g id="Layer_2-2"><polygon class="cls-1" points="32.87 43.9 17.94 34.73 17.94 34.73 12.24 33.86 12.39 25.53 18.13 24.91 33.27 16.19 32.87 43.9"/><path class="cls-1" d="M38.86,39.04l-2.1-1.53c5.7-7.79.31-13.99.08-14.25l1.93-1.74c.07.08,7.05,7.99.09,17.53Z"/><path class="cls-1" d="M43.58,45.47l-2.08-1.55c10.98-14.75.58-25.24.13-25.68l1.81-1.86c.13.12,12.51,12.48.14,29.09Z"/><path class="cls-1" d="M30.86,61.71C13.84,61.71,0,47.87,0,30.86S13.84,0,30.86,0s30.86,13.84,30.86,30.86-13.84,30.86-30.86,30.86ZM30.86,4.8c-14.37,0-26.06,11.69-26.06,26.06s11.69,26.06,26.06,26.06,26.06-11.69,26.06-26.06S45.23,4.8,30.86,4.8Z"/></g></svg>