<?xml version="1.0" encoding="UTF-8"?><svg id="Layer_2" xmlns="http://www.w3.org/2000/svg" xmlns:xlink="http://www.w3.org/1999/xlink" viewBox="0 0 56.37 53.97"><defs><style>.cls-1{opacity:.5;}.cls-2{fill:#def5ff;filter:url(#drop-shadow-1);}.cls-2,.cls-3{stroke-width:0px;}.cls-3{fill:#78aaa1;}</style><filter id="drop-shadow-1" filterUnits="userSpaceOnUse"><feOffset dx="2.58" dy="2.58"/><feGaussianBlur result="blur" stdDeviation="0"/><feFlood flood-color="#000" flood-opacity=".75"/><feComposite in2="blur" operator="in"/><feComposite in="SourceGraphic"/></filter></defs><g id="Layer_2-2"><g class="cls-1"><rect class="cls-2" x="0" width="53.79" height="51.39" rx="7.96" ry="7.96"/><path class="cls-3" d="M27.41,16.55c-5.06,0-9.18,4.12-9.18,9.18s4.12,9.18,9.18,9.18,9.18-4.12,9.18-9.18-4.12-9.18-9.18-9.18ZM27.41,32.91c-3.96,0-7.18-3.22-7.18-7.18s3.22-7.18,7.18-7.18,7.18,3.22,7.18,7.18-3.22,7.18-7.18,7.18Z"/><path class="cls-3" d="M46.67,24.67h-3.12c-.53-8.13-7.09-14.63-15.25-15.07v-3.6c0-.55-.45-1-1-1s-1,.45-1,1v3.61c-8.05.56-14.48,7.01-15.01,15.06h-3.37c-.55,0-1,.45-1,1s.45,1,1,1h3.36c.47,8.11,6.92,14.63,15.01,15.19v2.89c0,.55.45,1,1,1s1-.45,1-1v-2.87c8.2-.44,14.78-7.01,15.25-15.2h3.12c.55,0,1-.45,1-1s-.45-1-1-1ZM28.29,39.86v-2.35c0-.55-.45-1-1-1s-1,.45-1,1v2.34c-6.99-.55-12.55-6.18-13.01-13.19h1.87c.55,0,1-.45,1-1s-.45-1-1-1h-1.86c.52-6.95,6.06-12.51,13.01-13.06v1.62c0,.55.45,1,1,1s1-.45,1-1v-1.63c7.06.44,12.72,6.04,13.25,13.07h-2.1c-.55,0-1,.45-1,1s.45,1,1,1h2.11c-.47,7.09-6.16,12.76-13.25,13.2Z"/></g></g></svg>