<?xml version="1.0" encoding="UTF-8"?><svg id="Layer_2" xmlns="http://www.w3.org/2000/svg" xmlns:xlink="http://www.w3.org/1999/xlink" viewBox="0 0 54.79 52.39"><defs><style>.cls-1{fill:#def5ff;filter:url(#drop-shadow-1);}.cls-1,.cls-2{stroke-width:0px;}.cls-2{fill:#78aaa1;}</style><filter id="drop-shadow-1" filterUnits="userSpaceOnUse"><feOffset dx="1" dy="1"/><feGaussianBlur result="blur" stdDeviation="0"/><feFlood flood-color="#000" flood-opacity=".75"/><feComposite in2="blur" operator="in"/><feComposite in="SourceGraphic"/></filter></defs><g id="Layer_2-2"><rect class="cls-1" width="53.79" height="51.39" rx="7.96" ry="7.96"/><path class="cls-2" d="M29.89,22.61h-5.47v4.91h-1.61v-4.91h-5.49v-1.52h5.49v-4.91h1.61v4.91h5.47v1.52Z"/><path class="cls-2" d="M43.45,38.43l-8.81-8.57c1.62-2.25,2.58-5,2.58-7.97,0-7.55-6.14-13.68-13.68-13.68s-13.68,6.14-13.68,13.68,6.14,13.68,13.68,13.68c3.23,0,6.2-1.13,8.54-3.01l8.77,8.53c.36.35.83.53,1.3.53s.97-.19,1.33-.56c.72-.74.7-1.91-.04-2.63ZM23.54,31.86c-5.5,0-9.97-4.47-9.97-9.97s4.47-9.97,9.97-9.97,9.97,4.47,9.97,9.97-4.47,9.97-9.97,9.97Z"/></g></svg>