<?xml version="1.0" encoding="UTF-8"?><svg id="Layer_2" xmlns="http://www.w3.org/2000/svg" viewBox="0 0 25.12 39.29"><defs><style>.cls-1{fill:#406325;stroke-width:0px;}</style></defs><g id="Layer_3"><path class="cls-1" d="M8.15,16.24c-.35,0-.64.02-.88.08-.67.18-.94.66-.96,1.59,0,.08,0,.11.06.16.19.19.84.58,3.08.8l.02-1.26c.02-1.05-.28-1.36-1.33-1.38Z"/><path class="cls-1" d="M13.33,20.84c-.25,0-.51,0-.77-.01h-.13c-.43,0-.83-.02-1.21-.03l-.15,7.99c.38-.02.77-.02,1.17-.02.32,0,.63.02.94.03l.15-7.96Z"/><path class="cls-1" d="M16.91,16.4c-1.69-.03-1.7.44-1.71,1.21l-.03,1.42c1.86-.04,3.73-.21,3.74-.79.02-1.17-.29-1.81-2-1.84Z"/><path class="cls-1" d="M12.77,0C5.84-.12.12,5.11,0,11.69c-.07,3.71,3.7,11.71,5.55,15.49.77,1.57,2.08,1.75,3.73,1.7l.15-8.19c-2.86-.26-3.82-.82-4.34-1.36-.39-.4-.58-.89-.57-1.45.04-2.27,1.35-3.49,3.67-3.45,2.04.04,3.14,1.18,3.1,3.22l-.02,1.34c.37.01.77.03,1.2.03h.13c.23,0,.49,0,.77.01l.03-1.46c.04-2.08,1.17-3.02,3.55-2.98,3.17.06,3.8,2.03,3.77,3.68-.04,2.12-2.49,2.53-5.58,2.57l-.15,8.03c1.74.02,3.16-.21,4.11-1.73,2.36-3.78,5.94-11.25,6.01-14.99C25.23,5.57,19.71.13,12.77,0Z"/><path class="cls-1" d="M16,28.57l-7.5-.14c-1.55-.03-2.84,1.22-2.87,2.77l.81,5.12c-.03,1.55,2.12,2.86,3.67,2.89l3.89.07c1.55.03,3.75-1.2,3.77-2.75l1-5.09c.03-1.55-1.22-2.84-2.77-2.87ZM15.64,37.12s-.08.02-.12.02l-6.84-.12c-.25,0-.45-.21-.44-.46,0-.25.21-.45.46-.44l6.84.12c.25,0,.45.21.44.46,0,.21-.15.38-.33.43ZM16.6,34.43s-.08.02-.12.02l-8.65-.16c-.25,0-.45-.21-.44-.46,0-.25.21-.45.46-.44l8.65.16c.25,0,.45.21.44.46,0,.21-.15.38-.33.43ZM17.55,31.74s-.08.02-.12.02l-10.45-.19c-.25,0-.45-.21-.44-.46,0-.25.21-.45.46-.44l10.45.19c.25,0,.45.21.44.46,0,.21-.15.38-.33.43Z"/></g></svg>