<?xml version="1.0" encoding="UTF-8"?><svg id="Layer_2" xmlns="http://www.w3.org/2000/svg" viewBox="0 0 23.25 38.75"><defs><style>.cls-1{fill:#78aaa1;stroke-width:0px;}</style></defs><g id="Layer_3"><path class="cls-1" d="M9.96,38.75v-4.66c-2.05-.05-3.89-.24-5.5-.59-1.61-.35-3.08-.81-4.41-1.4v-6.12c1.31.63,2.88,1.21,4.7,1.73,1.82.52,3.56.83,5.21.94v-7.18c-2.44-.96-4.39-1.89-5.85-2.79s-2.51-1.91-3.15-3.01c-.64-1.1-.96-2.43-.96-3.97s.42-2.94,1.26-4.09c.84-1.15,2.01-2.07,3.51-2.77,1.5-.69,3.23-1.13,5.19-1.3V0h3.17v3.45c1.79.06,3.46.27,5.01.61,1.55.35,3.08.85,4.57,1.52l-2.18,5.42c-1.27-.53-2.54-.93-3.81-1.23-1.27-.29-2.47-.49-3.6-.58v6.83c1.71.63,3.34,1.32,4.89,2.06,1.54.74,2.8,1.68,3.77,2.83.97,1.14,1.46,2.64,1.46,4.49,0,2.3-.84,4.23-2.51,5.79-1.67,1.56-4.21,2.49-7.61,2.8v4.75h-3.17ZM9.96,14.73v-5.44c-.63.09-1.17.24-1.62.45-.45.21-.79.47-1.02.8-.23.32-.35.71-.35,1.16s.1.84.31,1.18.53.66.97.95c.44.29,1.01.59,1.7.9ZM13.13,28.49c1.08-.19,1.88-.51,2.39-.96.51-.46.76-1.05.76-1.77,0-.43-.12-.82-.35-1.16-.23-.34-.58-.66-1.05-.96s-1.05-.61-1.75-.92v5.77Z"/></g></svg>