<?xml version="1.0" encoding="UTF-8"?><svg id="Layer_2" xmlns="http://www.w3.org/2000/svg" viewBox="0 0 36.09 36.07"><defs><style>.cls-1{fill:#406325;stroke-width:0px;}</style></defs><g id="Layer_3"><path class="cls-1" d="M34.61,5.67h-5.55v-2.71h.28c.82,0,1.48-.66,1.48-1.48s-.66-1.48-1.48-1.48H6.75c-.82,0-1.48.66-1.48,1.48s.66,1.48,1.48,1.48h.28v2.71s-5.55,0-5.55,0c-.82,0-1.48.66-1.48,1.48v1.53c0,4.95,3.34,9.31,8.12,10.6l2.71.73c.12.13.23.28.35.41,1.26,1.3,2.78,2.12,4.51,2.52v2.97c0,1.08-.88,1.96-1.96,1.96h0c-.4,0-.72.32-.72.72v1.12c0,.4-.32.72-.72.72h-1c-.4,0-.72.32-.72.72v4.18c0,.4.32.72.72.72h13.54c.4,0,.72-.32.72-.72v-4.18c0-.4-.32-.72-.72-.72h-1c-.4,0-.72-.32-.72-.72v-1.12c0-.4-.32-.72-.72-.72-1.08,0-1.96-.88-1.96-1.96v-2.97c1.72-.4,3.24-1.22,4.5-2.52.12-.13.23-.27.35-.4l2.71-.73c4.78-1.29,8.12-5.65,8.12-10.6v-1.53c0-.82-.66-1.48-1.48-1.48ZM2.96,8.68v-.05h4.1c.08,1.72.39,4.8,1.57,7.7-3.34-1.03-5.66-4.13-5.66-7.65ZM23.35,10.75l-1.7,1.63c-.16.15-.23.38-.19.6l.42,2.31c.15.82-.72,1.45-1.45,1.06l-2.07-1.11c-.2-.11-.43-.11-.63,0l-2.07,1.11c-.73.4-1.6-.23-1.45-1.06l.42-2.31c.04-.22-.03-.44-.19-.6l-1.7-1.63c-.6-.58-.27-1.6.55-1.71l2.33-.32c.22-.03.41-.17.51-.37l1.02-2.12c.36-.75,1.43-.75,1.79,0l1.02,2.12c.1.2.29.34.51.37l2.33.32c.83.11,1.16,1.13.55,1.71ZM33.13,8.68c0,3.52-2.32,6.62-5.66,7.65,1.18-2.91,1.49-6,1.57-7.7h4.09v.05Z"/></g></svg>