<?xml version="1.0" encoding="UTF-8"?><svg id="Layer_2" xmlns="http://www.w3.org/2000/svg" viewBox="0 0 31.25 38.43"><defs><style>.cls-1{fill:#406325;stroke-width:0px;}</style></defs><g id="Layer_3"><path class="cls-1" d="M31.23,1.76C31.26-.27,29.06.01,29.06.01H2.19S.02-.1.05,1.93C.08,3.97-.07,34.56.05,36.51c.11,1.95,1.98,1.92,1.98,1.92h26.95s2.22.12,2.26-2.09c.04-2.46-.03-32.54,0-34.58ZM7.8,28.12c0,.52-.42.94-.94.94h-1.93c-.52,0-.94-.42-.94-.94v-1.93c0-.52.42-.94.94-.94h1.93c.52,0,.94.42.94.94v1.93ZM7.8,21.47c0,.52-.42.94-.94.94h-1.93c-.52,0-.94-.42-.94-.94v-1.93c0-.52.42-.94.94-.94h1.93c.52,0,.94.42.94.94v1.93ZM7.8,14.82c0,.52-.42.94-.94.94h-1.93c-.52,0-.94-.42-.94-.94v-1.93c0-.52.42-.94.94-.94h1.93c.52,0,.94.42.94.94v1.93ZM7.8,8.17c0,.52-.42.94-.94.94h-1.93c-.52,0-.94-.42-.94-.94v-1.93c0-.52.42-.94.94-.94h1.93c.52,0,.94.42.94.94v1.93ZM14.29,28.12c0,.52-.42.94-.94.94h-1.93c-.52,0-.94-.42-.94-.94v-1.93c0-.52.42-.94.94-.94h1.93c.52,0,.94.42.94.94v1.93ZM14.29,21.47c0,.52-.42.94-.94.94h-1.93c-.52,0-.94-.42-.94-.94v-1.93c0-.52.42-.94.94-.94h1.93c.52,0,.94.42.94.94v1.93ZM14.29,14.82c0,.52-.42.94-.94.94h-1.93c-.52,0-.94-.42-.94-.94v-1.93c0-.52.42-.94.94-.94h1.93c.52,0,.94.42.94.94v1.93ZM14.29,8.17c0,.52-.42.94-.94.94h-1.93c-.52,0-.94-.42-.94-.94v-1.93c0-.52.42-.94.94-.94h1.93c.52,0,.94.42.94.94v1.93ZM20.77,28.12c0,.52-.42.94-.94.94h-1.93c-.52,0-.94-.42-.94-.94v-1.93c0-.52.42-.94.94-.94h1.93c.52,0,.94.42.94.94v1.93ZM20.77,21.47c0,.52-.42.94-.94.94h-1.93c-.52,0-.94-.42-.94-.94v-1.93c0-.52.42-.94.94-.94h1.93c.52,0,.94.42.94.94v1.93ZM20.77,14.82c0,.52-.42.94-.94.94h-1.93c-.52,0-.94-.42-.94-.94v-1.93c0-.52.42-.94.94-.94h1.93c.52,0,.94.42.94.94v1.93ZM20.77,8.17c0,.52-.42.94-.94.94h-1.93c-.52,0-.94-.42-.94-.94v-1.93c0-.52.42-.94.94-.94h1.93c.52,0,.94.42.94.94v1.93ZM27.25,28.12c0,.52-.42.94-.94.94h-1.93c-.52,0-.94-.42-.94-.94v-1.93c0-.52.42-.94.94-.94h1.93c.52,0,.94.42.94.94v1.93ZM27.25,21.47c0,.52-.42.94-.94.94h-1.93c-.52,0-.94-.42-.94-.94v-1.93c0-.52.42-.94.94-.94h1.93c.52,0,.94.42.94.94v1.93ZM27.25,14.82c0,.52-.42.94-.94.94h-1.93c-.52,0-.94-.42-.94-.94v-1.93c0-.52.42-.94.94-.94h1.93c.52,0,.94.42.94.94v1.93ZM27.25,8.17c0,.52-.42.94-.94.94h-1.93c-.52,0-.94-.42-.94-.94v-1.93c0-.52.42-.94.94-.94h1.93c.52,0,.94.42.94.94v1.93Z"/></g></svg>