<?xml version="1.0" encoding="UTF-8"?><svg id="Layer_2" xmlns="http://www.w3.org/2000/svg" viewBox="0 0 39.99 27.88"><defs><style>.cls-1{fill:#406325;stroke-width:0px;}</style></defs><g id="Layer_3"><path class="cls-1" d="M1.18,26.18c-1.96-1.88-1.3-2.95.7-3.81,2.45-1.05,4.75-.74,6.88.71,2.45,1.67,4.73,1.8,7.26.04,2.78-1.93,5.73-1.87,8.53.09,2.25,1.58,4.28,1.28,6.74.16,2.02-.92,4.54-1.17,6.8-1.04,1.96.11,2.65,1.56.86,3.52-2.68-1.44-5.17-.73-7.73.97-2.39,1.59-5.09,1.31-7.39-.39-2.47-1.83-4.73-1.81-7.21-.07-2.43,1.71-5.13,2.07-7.68.38-2.57-1.7-5.07-2.5-7.76-.56Z"/><path class="cls-1" d="M1.18,14.52c-1.96-1.88-1.3-2.95.7-3.81,2.45-1.05,4.75-.74,6.88.71,2.45,1.67,4.73,1.8,7.26.04,2.78-1.93,5.73-1.87,8.53.09,2.25,1.58,4.28,1.28,6.74.16,2.02-.92,4.54-1.17,6.8-1.04,1.96.11,2.65,1.56.86,3.52-2.68-1.44-5.17-.73-7.73.97-2.39,1.59-5.09,1.31-7.39-.39-2.47-1.83-4.73-1.81-7.21-.07-2.43,1.71-5.13,2.07-7.68.38-2.57-1.7-5.07-2.5-7.76-.56Z"/><path class="cls-1" d="M1.18,4.47C-.78,2.59-.12,1.52,1.88.66,4.33-.4,6.63-.08,8.76,1.37c2.45,1.67,4.73,1.8,7.26.04,2.78-1.93,5.73-1.87,8.53.09,2.25,1.58,4.28,1.28,6.74.16,2.02-.92,4.54-1.17,6.8-1.04,1.96.11,2.65,1.56.86,3.52-2.68-1.44-5.17-.73-7.73.97-2.39,1.59-5.09,1.31-7.39-.39-2.47-1.83-4.73-1.81-7.21-.07-2.43,1.71-5.13,2.07-7.68.38-2.57-1.7-5.07-2.5-7.76-.56Z"/></g></svg>