<?xml version="1.0" encoding="UTF-8"?><svg id="Layer_2" xmlns="http://www.w3.org/2000/svg" viewBox="0 0 24.02 24.02"><defs><style>.cls-1{fill:#e8e8e8;stroke:#6e6e6e;stroke-miterlimit:10;}</style></defs><g id="Layer_3"><path class="cls-1" d="M12.01.5C5.65.5.5,5.65.5,12.01s5.15,11.51,11.51,11.51,11.51-5.15,11.51-11.51S18.37.5,12.01.5ZM8.14,9.62c-1.83.23-3.37.55-4.28.76-.08.02-.24-.15-.21-.26.86-3.82,4.28-6.68,8.35-6.68s7.43,2.81,8.33,6.57c.01.04.02.09.03.13.01.06-.12.16-.18.15-.91-.2-2.22-.46-3.76-.65-1.28-.16-2.7-.28-4.16-.29h-.06c-1.43,0-2.81.12-4.06.28ZM8.09,16.43l-1.7,1.58s-.41.07-.49,0c-1.29-1.32-2.16-3.04-2.39-4.97-.01-.1.23-.34.23-.34.6,0,2.37-.03,2.77.02.48.06.83,0,1.02.59.13.4.51,1.56.74,2.25.1.32-.18.88-.18.88ZM8.67,19.58c.39-.63.9-1.43,1.04-1.62.24-.32.69-.39.69-.39h3.66s.46.08.7.39c.13.17.56.87.94,1.46.05.08,0,.31-.07.35-1.1.52-2.33.73-3.62.73-1.14,0-2.22-.15-3.21-.55-.09-.04-.18-.28-.13-.37ZM17.86,17.81l-1.48-1.38s-.29-.55-.18-.88c.23-.69.61-1.85.74-2.25.19-.59.54-.53,1.02-.59.33-.04,1.56-.03,2.33-.03.09,0,.24.21.23.32-.21,1.84-1.01,3.5-2.2,4.8-.07.08-.46.01-.46.01Z"/></g></svg>