<?xml version="1.0" encoding="UTF-8"?><svg id="Layer_2" xmlns="http://www.w3.org/2000/svg" viewBox="0 0 28.79 28.25"><defs><style>.cls-1{fill:#27aae1;stroke:#6e6e6e;stroke-miterlimit:10;}</style></defs><g id="Layer_3"><path class="cls-1" d="M14.41,6.6c-4.24,4.04-5.52,7.14-5.62,9.33-.03.21-.07.41-.07.63,0,.81.26,1.56.69,2.23.47.88,1.04,1.31,1.04,1.31h.21c.92.66,2.08,1.07,3.37,1.07,1.38,0,2.63-.47,3.58-1.22,5.94-3.55-3.21-13.35-3.21-13.35Z"/><path class="cls-1" d="M14.12,24.75c-5.86,0-10.62-4.77-10.62-10.62S8.27,3.5,14.12,3.5c3.18,0,6.09,1.39,8.09,3.76l-2.63.85,6.66,6.01,1.88-8.78-2.87.93C22.72,2.69,18.54.5,14.12.5,6.61.5.5,6.61.5,14.12s6.11,13.62,13.62,13.62c5.92,0,11.13-3.78,12.96-9.41l-2.85-.93c-1.43,4.39-5.49,7.33-10.1,7.33Z"/></g></svg>