<?xml version="1.0" encoding="UTF-8"?><svg id="Layer_2" xmlns="http://www.w3.org/2000/svg" viewBox="0 0 44.93 44.93"><defs><style>.cls-1{stroke-miterlimit:10;}.cls-1,.cls-2{fill:none;stroke:#fff;stroke-width:.76px;}.cls-3{fill:#78aaa1;stroke-width:0px;}.cls-2{stroke-linecap:round;stroke-linejoin:round;}</style></defs><g id="Layer_3"><circle class="cls-3" cx="22.46" cy="22.46" r="22.46"/><circle class="cls-1" cx="22.46" cy="22.47" r="19.22"/><path class="cls-2" d="M32.54,11.12c.02-1.24-1.33-1.07-1.33-1.07H14.79s-1.33-.07-1.31,1.17c.02,1.24-.07,19.95,0,21.14.07,1.19,1.21,1.18,1.21,1.18h16.48s1.36.07,1.38-1.28c.03-1.5-.02-19.9,0-21.14ZM18.22,27.23c0,.32-.26.58-.58.58h-1.18c-.32,0-.58-.26-.58-.58v-1.18c0-.32.26-.58.58-.58h1.18c.32,0,.58.26.58.58v1.18ZM18.22,23.17c0,.32-.26.58-.58.58h-1.18c-.32,0-.58-.26-.58-.58v-1.18c0-.32.26-.58.58-.58h1.18c.32,0,.58.26.58.58v1.18ZM18.22,19.1c0,.32-.26.58-.58.58h-1.18c-.32,0-.58-.26-.58-.58v-1.18c0-.32.26-.58.58-.58h1.18c.32,0,.58.26.58.58v1.18ZM18.22,15.04c0,.32-.26.58-.58.58h-1.18c-.32,0-.58-.26-.58-.58v-1.18c0-.32.26-.58.58-.58h1.18c.32,0,.58.26.58.58v1.18ZM22.18,27.23c0,.32-.26.58-.58.58h-1.18c-.32,0-.58-.26-.58-.58v-1.18c0-.32.26-.58.58-.58h1.18c.32,0,.58.26.58.58v1.18ZM22.18,23.17c0,.32-.26.58-.58.58h-1.18c-.32,0-.58-.26-.58-.58v-1.18c0-.32.26-.58.58-.58h1.18c.32,0,.58.26.58.58v1.18ZM22.18,19.1c0,.32-.26.58-.58.58h-1.18c-.32,0-.58-.26-.58-.58v-1.18c0-.32.26-.58.58-.58h1.18c.32,0,.58.26.58.58v1.18ZM22.18,15.04c0,.32-.26.58-.58.58h-1.18c-.32,0-.58-.26-.58-.58v-1.18c0-.32.26-.58.58-.58h1.18c.32,0,.58.26.58.58v1.18ZM26.14,27.23c0,.32-.26.58-.58.58h-1.18c-.32,0-.58-.26-.58-.58v-1.18c0-.32.26-.58.58-.58h1.18c.32,0,.58.26.58.58v1.18ZM26.14,23.17c0,.32-.26.58-.58.58h-1.18c-.32,0-.58-.26-.58-.58v-1.18c0-.32.26-.58.58-.58h1.18c.32,0,.58.26.58.58v1.18ZM26.14,19.1c0,.32-.26.58-.58.58h-1.18c-.32,0-.58-.26-.58-.58v-1.18c0-.32.26-.58.58-.58h1.18c.32,0,.58.26.58.58v1.18ZM26.14,15.04c0,.32-.26.58-.58.58h-1.18c-.32,0-.58-.26-.58-.58v-1.18c0-.32.26-.58.58-.58h1.18c.32,0,.58.26.58.58v1.18ZM30.11,27.23c0,.32-.26.58-.58.58h-1.18c-.32,0-.58-.26-.58-.58v-1.18c0-.32.26-.58.58-.58h1.18c.32,0,.58.26.58.58v1.18ZM30.11,23.17c0,.32-.26.58-.58.58h-1.18c-.32,0-.58-.26-.58-.58v-1.18c0-.32.26-.58.58-.58h1.18c.32,0,.58.26.58.58v1.18ZM30.11,19.1c0,.32-.26.58-.58.58h-1.18c-.32,0-.58-.26-.58-.58v-1.18c0-.32.26-.58.58-.58h1.18c.32,0,.58.26.58.58v1.18ZM30.11,15.04c0,.32-.26.58-.58.58h-1.18c-.32,0-.58-.26-.58-.58v-1.18c0-.32.26-.58.58-.58h1.18c.32,0,.58.26.58.58v1.18Z"/></g></svg>