<?xml version="1.0" encoding="UTF-8"?><svg id="Layer_2" xmlns="http://www.w3.org/2000/svg" viewBox="0 0 69.76 69.76"><defs><style>.cls-1{stroke-linecap:round;stroke-linejoin:round;}.cls-1,.cls-2{fill:none;stroke:#fff;stroke-width:.99px;}.cls-3{fill:#fff;opacity:.9;}.cls-3,.cls-4{stroke-width:0px;}.cls-2{stroke-miterlimit:10;}.cls-4{fill:#4c72b8;}</style></defs><g id="Layer_3"><circle class="cls-3" cx="34.88" cy="34.88" r="34.88"/><circle class="cls-4" cx="35.03" cy="33.79" r="29.29"/><circle class="cls-2" cx="35.03" cy="33.79" r="25.06"/><path class="cls-1" d="M48.16,19c.02-1.62-1.73-1.39-1.73-1.39h-21.41s-1.74-.09-1.71,1.53c.02,1.62-.09,26.01,0,27.56.09,1.55,1.58,1.53,1.58,1.53h21.48s1.77.1,1.8-1.67c.03-1.96-.02-25.94,0-27.56ZM29.49,40c0,.41-.34.75-.75.75h-1.54c-.41,0-.75-.34-.75-.75v-1.54c0-.41.34-.75.75-.75h1.54c.41,0,.75.34.75.75v1.54ZM29.49,34.7c0,.41-.34.75-.75.75h-1.54c-.41,0-.75-.34-.75-.75v-1.54c0-.41.34-.75.75-.75h1.54c.41,0,.75.34.75.75v1.54ZM29.49,29.4c0,.41-.34.75-.75.75h-1.54c-.41,0-.75-.34-.75-.75v-1.54c0-.41.34-.75.75-.75h1.54c.41,0,.75.34.75.75v1.54ZM29.49,24.1c0,.41-.34.75-.75.75h-1.54c-.41,0-.75-.34-.75-.75v-1.54c0-.41.34-.75.75-.75h1.54c.41,0,.75.34.75.75v1.54ZM34.66,40c0,.41-.34.75-.75.75h-1.54c-.41,0-.75-.34-.75-.75v-1.54c0-.41.34-.75.75-.75h1.54c.41,0,.75.34.75.75v1.54ZM34.66,34.7c0,.41-.34.75-.75.75h-1.54c-.41,0-.75-.34-.75-.75v-1.54c0-.41.34-.75.75-.75h1.54c.41,0,.75.34.75.75v1.54ZM34.66,29.4c0,.41-.34.75-.75.75h-1.54c-.41,0-.75-.34-.75-.75v-1.54c0-.41.34-.75.75-.75h1.54c.41,0,.75.34.75.75v1.54ZM34.66,24.1c0,.41-.34.75-.75.75h-1.54c-.41,0-.75-.34-.75-.75v-1.54c0-.41.34-.75.75-.75h1.54c.41,0,.75.34.75.75v1.54ZM39.83,40c0,.41-.34.75-.75.75h-1.54c-.41,0-.75-.34-.75-.75v-1.54c0-.41.34-.75.75-.75h1.54c.41,0,.75.34.75.75v1.54ZM39.83,34.7c0,.41-.34.75-.75.75h-1.54c-.41,0-.75-.34-.75-.75v-1.54c0-.41.34-.75.75-.75h1.54c.41,0,.75.34.75.75v1.54ZM39.83,29.4c0,.41-.34.75-.75.75h-1.54c-.41,0-.75-.34-.75-.75v-1.54c0-.41.34-.75.75-.75h1.54c.41,0,.75.34.75.75v1.54ZM39.83,24.1c0,.41-.34.75-.75.75h-1.54c-.41,0-.75-.34-.75-.75v-1.54c0-.41.34-.75.75-.75h1.54c.41,0,.75.34.75.75v1.54ZM45,40c0,.41-.34.75-.75.75h-1.54c-.41,0-.75-.34-.75-.75v-1.54c0-.41.34-.75.75-.75h1.54c.41,0,.75.34.75.75v1.54ZM45,34.7c0,.41-.34.75-.75.75h-1.54c-.41,0-.75-.34-.75-.75v-1.54c0-.41.34-.75.75-.75h1.54c.41,0,.75.34.75.75v1.54ZM45,29.4c0,.41-.34.75-.75.75h-1.54c-.41,0-.75-.34-.75-.75v-1.54c0-.41.34-.75.75-.75h1.54c.41,0,.75.34.75.75v1.54ZM45,24.1c0,.41-.34.75-.75.75h-1.54c-.41,0-.75-.34-.75-.75v-1.54c0-.41.34-.75.75-.75h1.54c.41,0,.75.34.75.75v1.54Z"/></g></svg>