<svg width="100" height="100" viewBox="0 0 100 100" fill="none" xmlns="http://www.w3.org/2000/svg">
    <g clip-path="url(#clip0_84_103)">
        <path opacity="0.9"
            d="M50 100C77.6142 100 100 77.6142 100 50C100 22.3858 77.6142 0 50 0C22.3858 0 0 22.3858 0 50C0 77.6142 22.3858 100 50 100Z"
            fill="white" />
        <path
            d="M50.1277 90.811C73.4588 90.811 92.3725 71.8973 92.3725 48.5661C92.3725 25.2349 73.4588 6.32129 50.1277 6.32129C26.7965 6.32129 7.88281 25.2349 7.88281 48.5661C7.88281 71.8973 26.7965 90.811 50.1277 90.811Z"
            fill="#2E8B57" />
        <path
            d="M50.1304 84.7051C70.0889 84.7051 86.2686 68.5255 86.2686 48.5669C86.2686 28.6083 70.0889 12.4287 50.1304 12.4287C30.1718 12.4287 13.9922 28.6083 13.9922 48.5669C13.9922 68.5255 30.1718 84.7051 50.1304 84.7051Z"
            stroke="white" stroke-miterlimit="10" />
        <path d="M26.2656 63.8594L42.6717 41.0938L51.7883 55.8251L56.2969 63.8594" stroke="white" stroke-linecap="round"
            stroke-linejoin="round" />
        <path d="M51.9375 55.2696L58.0833 44L73.7344 63.8594" stroke="white" stroke-linecap="round"
            stroke-linejoin="round" />
        <line x1="73.7187" y1="63.875" x2="26.2812" y2="63.875" stroke="white" stroke-linecap="round" />
    </g>
    <path fill-rule="evenodd" clip-rule="evenodd"
        d="M60.125 31.5C60.125 32.9497 58.9497 34.125 57.5 34.125C56.0503 34.125 54.875 32.9497 54.875 31.5C54.875 30.0503 56.0503 28.875 57.5 28.875C58.9497 28.875 60.125 30.0503 60.125 31.5Z"
        stroke="white" stroke-width="1.5" stroke-linecap="round" stroke-linejoin="round" />
    <path
        d="M64.5 32.25C64.9142 32.25 65.25 31.9142 65.25 31.5C65.25 31.0858 64.9142 30.75 64.5 30.75V32.25ZM62.75 30.75C62.3358 30.75 62 31.0858 62 31.5C62 31.9142 62.3358 32.25 62.75 32.25V30.75ZM52.25 32.25C52.6642 32.25 53 31.9142 53 31.5C53 31.0858 52.6642 30.75 52.25 30.75V32.25ZM50.5 30.75C50.0858 30.75 49.75 31.0858 49.75 31.5C49.75 31.9142 50.0858 32.25 50.5 32.25V30.75ZM58.25 24.5C58.25 24.0858 57.9142 23.75 57.5 23.75C57.0858 23.75 56.75 24.0858 56.75 24.5H58.25ZM56.75 26.25C56.75 26.6642 57.0858 27 57.5 27C57.9142 27 58.25 26.6642 58.25 26.25H56.75ZM58.25 36.75C58.25 36.3358 57.9142 36 57.5 36C57.0858 36 56.75 36.3358 56.75 36.75H58.25ZM56.75 38.5C56.75 38.9142 57.0858 39.25 57.5 39.25C57.9142 39.25 58.25 38.9142 58.25 38.5H56.75ZM62.9803 27.0803C63.2732 26.7874 63.2732 26.3126 62.9803 26.0197C62.6874 25.7268 62.2126 25.7268 61.9197 26.0197L62.9803 27.0803ZM60.6817 27.2577C60.3888 27.5506 60.3888 28.0254 60.6817 28.3183C60.9746 28.6112 61.4494 28.6112 61.7423 28.3183L60.6817 27.2577ZM54.3183 35.7423C54.6112 35.4494 54.6112 34.9746 54.3183 34.6817C54.0254 34.3888 53.5506 34.3888 53.2577 34.6817L54.3183 35.7423ZM52.0197 35.9197C51.7268 36.2126 51.7268 36.6874 52.0197 36.9803C52.3126 37.2732 52.7874 37.2732 53.0803 36.9803L52.0197 35.9197ZM53.0803 26.0197C52.7874 25.7268 52.3126 25.7268 52.0197 26.0197C51.7268 26.3126 51.7268 26.7874 52.0197 27.0803L53.0803 26.0197ZM53.2577 28.3183C53.5506 28.6112 54.0254 28.6112 54.3183 28.3183C54.6112 28.0254 54.6112 27.5506 54.3183 27.2577L53.2577 28.3183ZM61.7433 34.6827C61.4504 34.3898 60.9756 34.3898 60.6827 34.6827C60.3898 34.9756 60.3898 35.4504 60.6827 35.7433L61.7433 34.6827ZM61.9197 36.9803C62.2126 37.2732 62.6874 37.2732 62.9803 36.9803C63.2732 36.6874 63.2732 36.2126 62.9803 35.9197L61.9197 36.9803ZM64.5 30.75H62.75V32.25H64.5V30.75ZM52.25 30.75H50.5V32.25H52.25V30.75ZM56.75 24.5V26.25H58.25V24.5H56.75ZM56.75 36.75V38.5H58.25V36.75H56.75ZM61.9197 26.0197L60.6817 27.2577L61.7423 28.3183L62.9803 27.0803L61.9197 26.0197ZM53.2577 34.6817L52.0197 35.9197L53.0803 36.9803L54.3183 35.7423L53.2577 34.6817ZM52.0197 27.0803L53.2577 28.3183L54.3183 27.2577L53.0803 26.0197L52.0197 27.0803ZM60.6827 35.7433L61.9197 36.9803L62.9803 35.9197L61.7433 34.6827L60.6827 35.7433Z"
        fill="white" />
    <defs>
        <clipPath id="clip0_84_103">
            <rect width="100" height="100" fill="white" />
        </clipPath>
    </defs>
</svg>