<?xml version="1.0" encoding="UTF-8"?><svg id="Layer_2" xmlns="http://www.w3.org/2000/svg" viewBox="0 0 49.86 67.75"><defs><style>.cls-1{fill:#fff;stroke-width:0px;}</style></defs><g id="Layer_3"><path class="cls-1" d="M42.61,23.67c.04-3.52-.41-12.79-5.96-18.72-3.03-3.24-7.17-4.95-11.97-4.95s-8.77,1.71-11.73,4.93c-5.21,5.7-5.77,14.56-5.71,18.74-4.08.46-7.25,3.92-7.25,8.11v27.79c0,4.51,3.66,8.17,8.17,8.17h33.51c4.51,0,8.17-3.66,8.17-8.17v-27.79c0-4.2-3.17-7.65-7.24-8.11ZM18.87,10.32c1.45-1.58,3.3-2.32,5.81-2.32s4.6.79,6.12,2.4c3.26,3.46,3.85,10.08,3.81,13.21H15.25c-.04-3.55.54-9.94,3.62-13.3ZM27.79,48.39v2.78c0,1.55-1.27,2.83-2.83,2.83s-2.83-1.27-2.83-2.83v-2.74c-1.75-.98-2.93-2.85-2.93-4.99,0-3.16,2.56-5.72,5.72-5.72s5.72,2.56,5.72,5.72c0,2.12-1.15,3.96-2.86,4.95Z"/></g></svg>