<?xml version="1.0" encoding="UTF-8"?><svg xmlns="http://www.w3.org/2000/svg" viewBox="0 0 21.53 34.17"><defs><style>.cls-1,.cls-2{stroke-width:0px;}.cls-3{isolation:isolate;}.cls-2{fill:#406325;}.cls-4{mix-blend-mode:soft-light;opacity:.75;}</style></defs><g class="cls-3"><g id="Layer_2"><g id="Layer_2-2"><g class="cls-4"><path class="cls-1" d="M10.7,34.17v-3.79c-1.67-.04-3.17-.2-4.48-.48s-2.51-.66-3.6-1.14v-4.98c1.07.52,2.35.99,3.83,1.41,1.49.42,2.9.68,4.25.76v-5.85c-1.99-.78-3.58-1.54-4.77-2.27s-2.05-1.55-2.57-2.45c-.52-.9-.78-1.98-.78-3.24s.34-2.39,1.03-3.33c.69-.94,1.64-1.69,2.86-2.26,1.22-.57,2.63-.92,4.23-1.06v-2.89h2.59v2.81c1.46.05,2.82.22,4.09.5,1.26.28,2.51.7,3.73,1.24l-1.77,4.42c-1.03-.43-2.07-.76-3.11-1-1.04-.24-2.02-.4-2.94-.47v5.57c1.4.52,2.72,1.08,3.98,1.68,1.26.6,2.29,1.37,3.08,2.3.79.93,1.19,2.15,1.19,3.66,0,1.88-.68,3.45-2.05,4.72-1.37,1.27-3.43,2.03-6.2,2.28v3.87h-2.59ZM10.7,14.59v-4.44c-.52.08-.96.2-1.32.37-.37.17-.64.39-.83.65-.19.26-.28.58-.28.94s.08.69.25.96c.17.28.43.54.79.77s.82.48,1.39.74ZM13.28,25.8c.88-.15,1.53-.41,1.94-.78.42-.37.62-.85.62-1.44,0-.35-.09-.67-.28-.94-.19-.28-.47-.54-.86-.78-.38-.25-.86-.49-1.43-.75v4.7Z"/></g><path class="cls-2" d="M8.12,31.59v-3.79c-1.67-.04-3.17-.2-4.48-.48s-2.51-.66-3.6-1.14v-4.98c1.07.52,2.35.99,3.83,1.41,1.49.42,2.9.68,4.25.76v-5.85c-1.99-.78-3.58-1.54-4.77-2.27s-2.05-1.55-2.57-2.45c-.52-.9-.78-1.98-.78-3.24s.34-2.39,1.03-3.33c.69-.94,1.64-1.69,2.86-2.26,1.22-.57,2.63-.92,4.23-1.06V0h2.59v2.81c1.46.05,2.82.22,4.09.5,1.26.28,2.51.7,3.73,1.24l-1.77,4.42c-1.03-.43-2.07-.76-3.11-1-1.04-.24-2.02-.4-2.94-.47v5.57c1.4.52,2.72,1.08,3.98,1.68,1.26.6,2.29,1.37,3.08,2.3.79.93,1.19,2.15,1.19,3.66,0,1.88-.68,3.45-2.05,4.72-1.37,1.27-3.43,2.03-6.2,2.28v3.87h-2.59ZM8.12,12.01v-4.44c-.52.08-.96.2-1.32.37-.37.17-.64.39-.83.65-.19.26-.28.58-.28.94s.08.69.25.96c.17.28.43.54.79.77s.82.48,1.39.74ZM10.71,23.22c.88-.15,1.53-.41,1.94-.78.42-.37.62-.85.62-1.44,0-.35-.09-.67-.28-.94-.19-.28-.47-.54-.86-.78-.38-.25-.86-.49-1.43-.75v4.7Z"/></g></g></g></svg>