<?xml version="1.0" encoding="UTF-8"?><svg id="Layer_2" xmlns="http://www.w3.org/2000/svg" xmlns:xlink="http://www.w3.org/1999/xlink" viewBox="0 0 35.68 24.87"><defs><style>.cls-1{filter:url(#drop-shadow-1);}.cls-2{fill:#406325;stroke-width:0px;}</style><filter id="drop-shadow-1" filterUnits="userSpaceOnUse"><feOffset dx="2" dy="2"/><feGaussianBlur result="blur" stdDeviation="0"/><feFlood flood-color="#000" flood-opacity=".75"/><feComposite in2="blur" operator="in"/><feComposite in="SourceGraphic"/></filter></defs><g id="Layer_2-2"><g class="cls-1"><path class="cls-2" d="M1.05,23.36c-1.75-1.67-1.16-2.63.62-3.4,2.19-.94,4.24-.66,6.14.63,2.19,1.49,4.22,1.61,6.48.04,2.48-1.72,5.11-1.67,7.61.08,2.01,1.41,3.82,1.14,6.02.14,1.81-.82,4.05-1.05,6.07-.93,1.75.1,2.37,1.39.77,3.14-2.39-1.28-4.62-.65-6.9.87-2.13,1.42-4.54,1.17-6.6-.35-2.2-1.63-4.22-1.61-6.44-.06-2.17,1.52-4.57,1.85-6.85.34-2.29-1.52-4.52-2.23-6.92-.5Z"/><path class="cls-2" d="M1.05,12.95c-1.75-1.67-1.16-2.63.62-3.4,2.19-.94,4.24-.66,6.14.63,2.19,1.49,4.22,1.61,6.48.04,2.48-1.72,5.11-1.67,7.61.08,2.01,1.41,3.82,1.14,6.02.14,1.81-.82,4.05-1.05,6.07-.93,1.75.1,2.37,1.39.77,3.14-2.39-1.28-4.62-.65-6.9.87-2.13,1.42-4.54,1.17-6.6-.35-2.2-1.63-4.22-1.61-6.44-.06-2.17,1.52-4.57,1.85-6.85.34-2.29-1.52-4.52-2.23-6.92-.5Z"/><path class="cls-2" d="M1.05,3.99C-.7,2.31-.11,1.36,1.67.59,3.86-.35,5.91-.07,7.81,1.22c2.19,1.49,4.22,1.61,6.48.04,2.48-1.72,5.11-1.67,7.61.08,2.01,1.41,3.82,1.14,6.02.14,1.81-.82,4.05-1.05,6.07-.93,1.75.1,2.37,1.39.77,3.14-2.39-1.28-4.62-.65-6.9.87-2.13,1.42-4.54,1.17-6.6-.35-2.2-1.63-4.22-1.61-6.44-.06-2.17,1.52-4.57,1.85-6.85.34-2.29-1.52-4.52-2.23-6.92-.5Z"/></g></g></svg>