<?xml version="1.0" encoding="UTF-8"?><svg id="Layer_2" xmlns="http://www.w3.org/2000/svg" viewBox="0 0 128.8 67.02"><defs><style>.cls-1{opacity:.5;}.cls-2{fill:#78aaa1;}.cls-2,.cls-3,.cls-4{stroke-width:0px;}.cls-3{fill:#f1f1f1;}.cls-4{fill:#fff;}</style></defs><g id="Layer_1-2"><g class="cls-1"><path class="cls-3" d="M120.92,29.95v1.07L67.74,6.6c-2.16-.99-4.65-.99-6.81,0L7.88,31v-1.04H0v6.64h.02c.06.98.59,1.93,1.63,2.41l59.35,27.27c2.16.99,4.65.99,6.81,0l59.35-27.25c1.05-.48,1.58-1.44,1.63-2.42h.02v-6.64h-7.88Z"/><path class="cls-4" d="M1.65,33.15l59.35,27.27c2.16.99,4.65.99,6.81,0l59.35-27.25c2.2-1.01,2.2-4.13,0-5.14L67.74.74c-2.16-.99-4.65-.99-6.81,0L1.65,28.01c-2.2,1.01-2.19,4.13,0,5.14Z"/><polygon class="cls-2" points="72.23 14.48 77.33 14.22 81.69 38.55 34.24 35.29 34.95 32.16 76.01 35.14 72.23 14.48"/></g></g></svg>